<?xml version="1.0" encoding="UTF-8" standalone="no"?>
<!-- Generator: Adobe Illustrator 16.0.0, SVG Export Plug-In . SVG Version: 6.00 Build 0)  -->

<svg
   xmlns:dc="http://purl.org/dc/elements/1.1/"
   xmlns:cc="http://creativecommons.org/ns#"
   xmlns:rdf="http://www.w3.org/1999/02/22-rdf-syntax-ns#"
   xmlns:svg="http://www.w3.org/2000/svg"
   xmlns="http://www.w3.org/2000/svg"
   xmlns:sodipodi="http://sodipodi.sourceforge.net/DTD/sodipodi-0.dtd"
   xmlns:inkscape="http://www.inkscape.org/namespaces/inkscape"
   version="1.1"
   id="Isolation_Mode"
   x="0px"
   y="0px"
   width="110"
   height="81.25"
   viewBox="0 0 110 81.25"
   enable-background="new 0 0 1200 9990"
   xml:space="preserve"
   inkscape:version="0.48.2 r9819"
   sodipodi:docname="any-time.svg"><metadata
   id="metadata13"><rdf:RDF><cc:Work
       rdf:about=""><dc:format>image/svg+xml</dc:format><dc:type
         rdf:resource="http://purl.org/dc/dcmitype/StillImage" /></cc:Work></rdf:RDF></metadata><defs
   id="defs11" /><sodipodi:namedview
   pagecolor="#ffffff"
   bordercolor="#666666"
   borderopacity="1"
   objecttolerance="10"
   gridtolerance="10"
   guidetolerance="10"
   inkscape:pageopacity="0"
   inkscape:pageshadow="2"
   inkscape:window-width="640"
   inkscape:window-height="480"
   id="namedview9"
   showgrid="false"
   fit-margin-top="0"
   fit-margin-left="0"
   fit-margin-right="0"
   fit-margin-bottom="0"
   inkscape:zoom="0.023623624"
   inkscape:cx="337"
   inkscape:cy="-1433"
   inkscape:window-x="0"
   inkscape:window-y="0"
   inkscape:window-maximized="0"
   inkscape:current-layer="Isolation_Mode" />
<path
   d="M 85,25 C 85,11.193 73.807,0 60,0 46.193,0 35,11.193 35,25 35,50 60,81.25 60,81.25 60,81.25 85,50 85,25 m -37.5,0 c 0,-6.903 5.596,-12.5 12.5,-12.5 6.904,0 12.5,5.597 12.5,12.5 0,6.905 -5.596,12.5 -12.5,12.5 -6.904,0 -12.5,-5.595 -12.5,-12.5"
   id="path3"
   inkscape:connector-curvature="0"
   style="fill:#9fdc0c" />
<path
   d="m 95,32.5 c -3.365,0 -6.46,1.122 -8.962,2.993 C 85.013,40.738 83.16,46.397 80.491,52.437 83.059,66.314 95,81.25 95,81.25 c 0,0 15,-18.75 15,-33.75 0,-8.283 -6.716,-15 -15,-15 M 95,55 c -4.142,0 -7.5,-3.358 -7.5,-7.5 0,-4.142 3.358,-7.5 7.5,-7.5 4.142,0 7.5,3.358 7.5,7.5 0,4.142 -3.358,7.5 -7.5,7.5"
   id="path5"
   inkscape:connector-curvature="0"
   style="fill:#9fdc0c" />
<path
   d="m 33,26.25 c 0,-1.633 0.154,-3.231 0.433,-4.786 C 29.882,18.235 25.178,16.25 20,16.25 c -11.046,0 -20,8.954 -20,20 0,20 20,45 20,45 0,0 12.78,-15.987 17.905,-32.619 C 35.014,41.276 33,33.542 33,26.25 M 20,47.5 c -5.523,0 -10,-4.476 -10,-10 0,-5.522 4.477,-10 10,-10 5.523,0 10,4.478 10,10 0,5.522 -4.477,10 -10,10"
   id="path7"
   inkscape:connector-curvature="0"
   style="fill:#9fdc0c" />
</svg>