<?xml version="1.0" encoding="UTF-8" standalone="no"?>
<!-- Created with Inkscape (http://www.inkscape.org/) -->

<svg
   xmlns:dc="http://purl.org/dc/elements/1.1/"
   xmlns:cc="http://creativecommons.org/ns#"
   xmlns:rdf="http://www.w3.org/1999/02/22-rdf-syntax-ns#"
   xmlns:svg="http://www.w3.org/2000/svg"
   xmlns="http://www.w3.org/2000/svg"
   version="1.1"
   width="164"
   height="172"
   viewBox="0 0 164 172"
   id="Layer_1"
   xml:space="preserve"><metadata
   id="metadata21"><rdf:RDF><cc:Work
       rdf:about=""><dc:format>image/svg+xml</dc:format><dc:type
         rdf:resource="http://purl.org/dc/dcmitype/StillImage" /><dc:title></dc:title></cc:Work></rdf:RDF></metadata><defs
   id="defs19" />



<g
   id="g3009"><path
     d="m 151,27 v 100 c 0,5.522 -2.279,12 -7.802,12 h -118 C 19.675,139 13,132.522 13,127 V 27"
     id="path3"
     style="fill:none;stroke:#000000;stroke-width:10;stroke-linecap:round;stroke-miterlimit:10" /><path
     d="M 0,0 0,17 164,17 164,0 0,0 z"
     id="rect5" /><polyline
     transform="translate(-661,-527)"
     style="fill:none;stroke:#000000;stroke-width:4;stroke-miterlimit:10"
     id="polyline7"
     points="689.088,639 708.088,619.5 724.088,626.5   737.088,610.5 764.588,606.5 797.308,566.5 "
     stroke-miterlimit="10" /><rect
     width="6"
     height="30"
     x="78.5"
     y="140.5"
     id="rect11"
     style="stroke:#000000;stroke-width:3;stroke-miterlimit:10" /><polygon
     points="769.546,697.5 776.608,697.5 758.615,668.5 752.294,668.5 751.759,668.832 "
     transform="translate(-661,-527)"
     id="polygon13"
     style="stroke:#000000;stroke-width:3;stroke-miterlimit:10" /><polygon
     points="735.608,668.832 735.073,668.5 728.752,668.5 710.759,697.5 717.821,697.5 "
     transform="translate(-661,-527)"
     id="polygon15"
     style="stroke:#000000;stroke-width:3;stroke-miterlimit:10" /></g>
</svg>