<?xml version="1.0" encoding="UTF-8" standalone="no"?>
<!-- Created with Inkscape (http://www.inkscape.org/) -->

<svg
   xmlns:dc="http://purl.org/dc/elements/1.1/"
   xmlns:cc="http://creativecommons.org/ns#"
   xmlns:rdf="http://www.w3.org/1999/02/22-rdf-syntax-ns#"
   xmlns:svg="http://www.w3.org/2000/svg"
   xmlns="http://www.w3.org/2000/svg"
   version="1.1"
   width="82.469002"
   height="149.564"
   viewBox="0 0 82.469002 149.564"
   id="Layer_1"
   xml:space="preserve"><metadata
   id="metadata11"><rdf:RDF><cc:Work
       rdf:about=""><dc:format>image/svg+xml</dc:format><dc:type
         rdf:resource="http://purl.org/dc/dcmitype/StillImage" /><dc:title></dc:title></cc:Work></rdf:RDF></metadata><defs
   id="defs9" />
<path
   d="m 31.4375,0 0,18.25 c -4.959,0.904 -9.23975,2.3425 -12.84375,4.3125 -3.607,1.973 -6.52925,4.3735 -8.78125,7.1875 -2.2549999,2.817 -3.931,5.939 -5,9.375 -1.072,3.438 -1.59375,7.00075 -1.59375,10.71875 0,4.846 0.8770001,9.0015 2.625,12.4375 1.7449999,3.438 4.0332501,6.3215 6.90625,8.6875 2.873,2.366 6.10725,4.368 9.65625,6 3.549,1.635 7.157,3.148 10.875,4.5 3.829,1.352 7.22425,2.59725 10.15625,3.78125 2.928,1.184 5.333,2.41825 7.25,3.65625 1.915,1.243 3.39225,2.604 4.40625,4.125 1.014,1.521 1.53125,3.361 1.53125,5.5 0,3.38 -1.2775,5.98475 -3.8125,7.84375 -2.535,1.858 -7.254,2.8125 -14.125,2.8125 -6.084,0 -11.8485,-0.796 -17.3125,-2.375 -5.465,-1.576 -10.15175,-3.334 -14.09375,-5.25 L 0,121 c 2.4759999,1.241 6.2782502,2.79725 11.40625,4.65625 5.125,1.859 11.80525,3.10525 20.03125,3.78125 l 0,20.125 21.28125,0 0,-20.625 c 5.518,-0.901 10.1615,-2.348 13.9375,-4.375 3.773,-2.029 6.85275,-4.46725 9.21875,-7.28125 2.366,-2.814 4.0475,-5.8665 5.0625,-9.1875 1.014,-3.321 1.53125,-6.6825 1.53125,-10.0625 0,-4.954 -0.88,-9.282 -2.625,-13 -1.748,-3.715 -4.152,-6.95975 -7.25,-9.71875 -3.099,-2.756 -6.776,-5.19875 -11,-7.34375 -4.224,-2.145 -8.82525,-4.1305 -13.78125,-5.9375 -3.268,-1.131 -6.03575,-2.164 -8.34375,-3.125 -2.31,-0.959 -4.26775,-1.95375 -5.84375,-2.96875 -1.579,-1.014 -2.73775,-2.17275 -3.46875,-3.46875 -0.735,-1.294 -1.09375,-2.85125 -1.09375,-4.65625 0,-2.928 1.1975,-5.28975 3.5625,-7.09375 2.366,-1.801 6.24825,-2.6875 11.65625,-2.6875 5.408,0 10.56875,0.5625 15.46875,1.6875 4.902,1.127 9.18825,2.4865 12.90625,4.0625 L 77.90625,23.5 c -2.48,-1.125 -5.8375,-2.248 -10.0625,-3.375 -4.225,-1.125 -9.269,-1.9985 -15.125,-2.5625 L 52.71875,0 31.4375,0 z"
   transform="translate(-1.1638825e-6,0)"
   id="path5" />
</svg>