<?xml version="1.0" encoding="UTF-8" standalone="no"?>
<!-- Generator: Adobe Illustrator 16.0.0, SVG Export Plug-In . SVG Version: 6.00 Build 0)  -->

<svg
   xmlns:dc="http://purl.org/dc/elements/1.1/"
   xmlns:cc="http://creativecommons.org/ns#"
   xmlns:rdf="http://www.w3.org/1999/02/22-rdf-syntax-ns#"
   xmlns:svg="http://www.w3.org/2000/svg"
   xmlns="http://www.w3.org/2000/svg"
   xmlns:sodipodi="http://sodipodi.sourceforge.net/DTD/sodipodi-0.dtd"
   xmlns:inkscape="http://www.inkscape.org/namespaces/inkscape"
   version="1.1"
   id="Layer_1"
   x="0px"
   y="0px"
   width="29.245001"
   height="30.213001"
   viewBox="0 0 29.245 30.213"
   enable-background="new 0 0 841.89 595.28"
   xml:space="preserve"
   inkscape:version="0.48.2 r9819"
   sodipodi:docname="double-arrow.svg"><metadata
   id="metadata11"><rdf:RDF><cc:Work
       rdf:about=""><dc:format>image/svg+xml</dc:format><dc:type
         rdf:resource="http://purl.org/dc/dcmitype/StillImage" /></cc:Work></rdf:RDF></metadata><defs
   id="defs9" /><sodipodi:namedview
   pagecolor="#ffffff"
   bordercolor="#666666"
   borderopacity="1"
   objecttolerance="10"
   gridtolerance="10"
   guidetolerance="10"
   inkscape:pageopacity="0"
   inkscape:pageshadow="2"
   inkscape:window-width="640"
   inkscape:window-height="480"
   id="namedview7"
   showgrid="false"
   fit-margin-top="0"
   fit-margin-left="0"
   fit-margin-right="0"
   fit-margin-bottom="0"
   inkscape:zoom="0.39645207"
   inkscape:cx="172.548"
   inkscape:cy="-143.166"
   inkscape:window-x="0"
   inkscape:window-y="0"
   inkscape:window-maximized="0"
   inkscape:current-layer="Layer_1" />
<g
   id="g3"
   transform="translate(-248.397,-124.26101)">
	<path
   d="m 265.714,152.657 -1.514,1.514 c -0.182,0.182 -0.454,0.303 -0.696,0.303 -0.242,0 -0.515,-0.121 -0.696,-0.303 L 248.7,140.063 c -0.182,-0.182 -0.303,-0.454 -0.303,-0.696 0,-0.242 0.121,-0.515 0.303,-0.696 l 14.107,-14.107 c 0.182,-0.182 0.454,-0.303 0.696,-0.303 0.242,0 0.515,0.121 0.696,0.303 l 1.514,1.514 c 0.182,0.182 0.303,0.454 0.303,0.696 0,0.242 -0.121,0.515 -0.303,0.696 l -11.897,11.897 11.897,11.897 c 0.182,0.182 0.303,0.454 0.303,0.696 0,0.242 -0.12,0.516 -0.302,0.697 z m 11.625,0 -1.514,1.514 c -0.182,0.182 -0.454,0.303 -0.696,0.303 -0.242,0 -0.515,-0.121 -0.696,-0.303 l -14.107,-14.107 c -0.182,-0.182 -0.303,-0.454 -0.303,-0.696 0,-0.242 0.121,-0.515 0.303,-0.696 l 14.107,-14.107 c 0.182,-0.182 0.454,-0.303 0.696,-0.303 0.242,0 0.515,0.121 0.696,0.303 l 1.514,1.514 c 0.182,0.182 0.303,0.454 0.303,0.696 0,0.242 -0.121,0.515 -0.303,0.696 l -11.897,11.897 11.897,11.897 c 0.182,0.182 0.303,0.454 0.303,0.696 0,0.242 -0.121,0.515 -0.303,0.696 z"
   id="path5"
   inkscape:connector-curvature="0"
   style="fill:#cccccc" />
</g>
</svg>