<?xml version="1.0" encoding="UTF-8" standalone="no"?>
<!-- Generator: Adobe Illustrator 16.0.0, SVG Export Plug-In . SVG Version: 6.00 Build 0)  -->

<svg
   xmlns:dc="http://purl.org/dc/elements/1.1/"
   xmlns:cc="http://creativecommons.org/ns#"
   xmlns:rdf="http://www.w3.org/1999/02/22-rdf-syntax-ns#"
   xmlns:svg="http://www.w3.org/2000/svg"
   xmlns="http://www.w3.org/2000/svg"
   xmlns:sodipodi="http://sodipodi.sourceforge.net/DTD/sodipodi-0.dtd"
   xmlns:inkscape="http://www.inkscape.org/namespaces/inkscape"
   version="1.1"
   id="Layer_1"
   x="0px"
   y="0px"
   width="76.688408"
   height="70.745903"
   viewBox="0 0 76.688408 70.745903"
   enable-background="new 0 0 1920 1080"
   xml:space="preserve"
   inkscape:version="0.48.2 r9819"
   sodipodi:docname="fashion.svg"><metadata
   id="metadata9"><rdf:RDF><cc:Work
       rdf:about=""><dc:format>image/svg+xml</dc:format><dc:type
         rdf:resource="http://purl.org/dc/dcmitype/StillImage" /></cc:Work></rdf:RDF></metadata><defs
   id="defs7" /><sodipodi:namedview
   pagecolor="#ffffff"
   bordercolor="#666666"
   borderopacity="1"
   objecttolerance="10"
   gridtolerance="10"
   guidetolerance="10"
   inkscape:pageopacity="0"
   inkscape:pageshadow="2"
   inkscape:window-width="640"
   inkscape:window-height="480"
   id="namedview5"
   showgrid="false"
   fit-margin-top="0"
   fit-margin-left="0"
   fit-margin-right="0"
   fit-margin-bottom="0"
   inkscape:zoom="0.21851852"
   inkscape:cx="694.52718"
   inkscape:cy="373"
   inkscape:window-x="0"
   inkscape:window-y="0"
   inkscape:window-maximized="0"
   inkscape:current-layer="Layer_1" />
<path
   d="m 0.37218218,21.409906 c 0,0 -1.1,4.644 0.64800002,10.408 1.748,5.764 4.815,17.05 5.283,21.724 0.468,4.674 -0.049,17.204 -0.049,17.204 h 4.2729998 c 0,0 1.181,-15.867 1.492,-20.697 0.311,-4.83 2.181,-10.067 3.428,-12.248 1.247,-2.181 2.527,-2.615 2.527,-2.615 0,0 2.926,2.709 4.952,10.447 1.246,4.758 5.663,17.237 13.245,21.353 4.363,2.368 11.375,2.269 11.375,2.269 l 21.191,-0.847 c 0,0 8.105,-0.47 7.949,-2.184 -0.156,-1.714 -5.456,-2.058 -5.456,-2.058 0,0 0.623,-4.426 -2.649,-6.451 -3.272,-2.025 -8.414,-4.551 -8.414,-4.551 0,0 0.468,1.839 -3.583,2.462 -4.051,0.623 -8.414,0.935 -10.751,0 -2.337,-0.935 -4.207,-3.116 -5.298,-6.389 -1.091,-3.273 -5.921,-18.075 -8.258,-23.528 -2.337,-5.453 -5.765,-11.687 -8.414,-16.2050002 -2.649,-4.518 -5.921,-8.413 -7.167,-9.192 -1.246,-0.779 -2.649,0 -2.493,1.246 0.156,1.246 3.896,4.83 6.389,8.7260002 2.493,3.896 4.207,8.414 4.83,11.53 0.623,3.116 0.936,7.012 0.624,9.816 -0.312,2.804 -2.182,4.986 -2.182,4.986 0,0 -3.116,-4.986 -7.479,-8.882 -4.363,-3.896 -12.6209998,-9.349 -13.8679998,-9.972 -1.247,-0.623 -2.31900002,-0.779 -2.48400002,0.312 -0.165,1.091 0.339,3.336 0.339,3.336 z"
   id="path3"
   inkscape:connector-curvature="0" />
</svg>