<?xml version="1.0" encoding="UTF-8" standalone="no"?>
<!-- Created with Inkscape (http://www.inkscape.org/) -->

<svg
   xmlns:dc="http://purl.org/dc/elements/1.1/"
   xmlns:cc="http://creativecommons.org/ns#"
   xmlns:rdf="http://www.w3.org/1999/02/22-rdf-syntax-ns#"
   xmlns:svg="http://www.w3.org/2000/svg"
   xmlns="http://www.w3.org/2000/svg"
   version="1.1"
   width="35"
   height="35"
   viewBox="0 0 35 37"
   id="Layer_1"
   xml:space="preserve"><metadata
   id="metadata9"><rdf:RDF><cc:Work
       rdf:about=""><dc:format>image/svg+xml</dc:format><dc:type
         rdf:resource="http://purl.org/dc/dcmitype/StillImage" /><dc:title></dc:title></cc:Work></rdf:RDF></metadata><defs
   id="defs7" />
<path
   d="M 17.5,0 C 7.835,0 0,7.835 0,17.5 0,27.165 7.835,35 17.5,35 27.165,35 35,27.165 35,17.5 35,7.835 27.165,0 17.5,0 z m 4.932,14.164 -0.253,3.3 H 18.795 V 28.932 H 14.519 V 17.463 h -2.282 v -3.3 h 2.282 v -1.036 -1.014 -0.169 c 0,-0.976 0.026,-2.485 0.736,-3.418 0.748,-0.989 1.775,-1.661 3.541,-1.661 2.878,0 4.09,0.41 4.09,0.41 l -0.57,3.381 c 0,0 -0.951,-0.274 -1.838,-0.274 -0.887,0 -1.682,0.316 -1.682,1.204 v 0.359 1.183 1.036 h 3.636 z"
   id="path3"
   />
</svg>