<?xml version="1.0" encoding="UTF-8" standalone="no"?>
<!-- Generator: Adobe Illustrator 16.0.0, SVG Export Plug-In . SVG Version: 6.00 Build 0)  -->

<svg
   xmlns:dc="http://purl.org/dc/elements/1.1/"
   xmlns:cc="http://creativecommons.org/ns#"
   xmlns:rdf="http://www.w3.org/1999/02/22-rdf-syntax-ns#"
   xmlns:svg="http://www.w3.org/2000/svg"
   xmlns="http://www.w3.org/2000/svg"
   xmlns:sodipodi="http://sodipodi.sourceforge.net/DTD/sodipodi-0.dtd"
   xmlns:inkscape="http://www.inkscape.org/namespaces/inkscape"
   version="1.1"
   id="Layer_1"
   x="0px"
   y="0px"
   width="187"
   height="150.802"
   viewBox="0 0 187 150.802"
   enable-background="new 0 0 1920 1080"
   xml:space="preserve"
   inkscape:version="0.48.2 r9819"
   sodipodi:docname="film.svg"><metadata
   id="metadata17"><rdf:RDF><cc:Work
       rdf:about=""><dc:format>image/svg+xml</dc:format><dc:type
         rdf:resource="http://purl.org/dc/dcmitype/StillImage" /></cc:Work></rdf:RDF></metadata><defs
   id="defs15" /><sodipodi:namedview
   pagecolor="#ffffff"
   bordercolor="#666666"
   borderopacity="1"
   objecttolerance="10"
   gridtolerance="10"
   guidetolerance="10"
   inkscape:pageopacity="0"
   inkscape:pageshadow="2"
   inkscape:window-width="640"
   inkscape:window-height="480"
   id="namedview13"
   showgrid="false"
   inkscape:zoom="0.21851852"
   inkscape:cx="287"
   inkscape:cy="-56"
   inkscape:window-x="0"
   inkscape:window-y="0"
   inkscape:window-maximized="0"
   inkscape:current-layer="Layer_1"
   fit-margin-top="0"
   fit-margin-left="0"
   fit-margin-right="0"
   fit-margin-bottom="0" />
<g
   id="g3"
   transform="translate(-673,-333.198)">
	<path
   d="m 811,474 c 0,5.5 -4.5,10 -10,10 H 683 c -5.5,0 -10,-4.5 -10,-10 v -62 c 0,-5.5 4.5,-10 10,-10 h 118 c 5.5,0 10,4.5 10,10 v 62 z"
   id="path5"
   inkscape:connector-curvature="0" />
</g>
<circle
   cx="710.46002"
   cy="363.073"
   r="29.875"
   id="circle7"
   sodipodi:cx="710.46002"
   sodipodi:cy="363.073"
   sodipodi:rx="29.875"
   sodipodi:ry="29.875"
   transform="translate(-673,-333.198)" />
<circle
   cx="774.34399"
   cy="363.073"
   r="29.875"
   id="circle9"
   sodipodi:cx="774.34399"
   sodipodi:cy="363.073"
   sodipodi:rx="29.875"
   sodipodi:ry="29.875"
   transform="translate(-673,-333.198)" />
<polygon
   points="822,430.063 822,454.937 850,471.229 850,477 859.918,477 860,477.047 860,477 860,408 860,407.953 859.918,408 850,408 850,413.771 "
   id="polygon11"
   transform="translate(-673,-333.198)" />
</svg>