<?xml version="1.0" encoding="UTF-8" standalone="no"?>
<!-- Created with Inkscape (http://www.inkscape.org/) -->

<svg
   xmlns:dc="http://purl.org/dc/elements/1.1/"
   xmlns:cc="http://creativecommons.org/ns#"
   xmlns:rdf="http://www.w3.org/1999/02/22-rdf-syntax-ns#"
   xmlns:svg="http://www.w3.org/2000/svg"
   xmlns="http://www.w3.org/2000/svg"
   version="1.1"
   width="228.787"
   height="78.021004"
   viewBox="0 0 228.787 78.021"
   id="Layer_1"
   xml:space="preserve"><metadata
   id="metadata27"><rdf:RDF><cc:Work
       rdf:about=""><dc:format>image/svg+xml</dc:format><dc:type
         rdf:resource="http://purl.org/dc/dcmitype/StillImage" /><dc:title></dc:title></cc:Work></rdf:RDF></metadata><defs
   id="defs25" />
<g
   id="g5">
		
		
	</g><g
   id="g11">
		
		
	</g><path
   d="m 215,12.357 h 1.994 c 2.237,1.855 5.899,3.033 9.899,3.033 3,0 2,13.322 0,13.322 -3,0 -5.425,0.613 -7.421,1.645 H 217 l -2,-18 z m -201.106,0 H 11.9 C 9.663,14.212 5.894,15.39 1.894,15.39 c -3,0 -2,13.322 0,13.322 3,0 5.531,0.613 7.527,1.645 h 2.473 l 2,-18 z m 110,13 h -0.358 c -2.237,1.855 -5.519,3.033 -9.187,3.033 -3.668,0 -6.95,-1.178 -9.188,-3.033 h -0.268 v 18 h 2.382 c 1.997,-1.031 4.433,-1.645 7.073,-1.645 2.639,0 5.076,0.613 7.072,1.645 h 2.473 v -18 z m -4.001,13.654 c 0,23.38 34.008,39.01 50.672,39.01 27.985,0 50.672,-27.953 50.672,-51.333 0,-23.38 -22.831,-28.842 -50.672,-26 -32.656,3.333 -50.672,22 -50.672,38.323 z m 5.167,0 c 0,-13.345 14.493,-29.006 41.353,-31.748 3.578,-0.365 6.992,-0.55 10.149,-0.55 26.042,0 31.508,12.272 31.508,22.568 0,19.036 -18.514,42.027 -41.505,42.027 C 151.987,71.309 125.06,57.989 125.06,39.011 z m 41.658,-28.764 c 3.477,-0.354 6.789,-0.534 9.845,-0.534 18.917,0 28.508,6.583 28.508,19.568 0,17.677 -17.176,39.027 -38.505,39.027 -13.181,0 -38.505,-12.372 -38.505,-29.298 -0.001,-12.031 13.548,-26.199 38.657,-28.763 z M 58.565,0.688 c -27.841,-2.842 -50.672,2.62 -50.672,26 0,23.38 22.687,51.333 50.672,51.333 16.664,0 50.672,-15.63 50.672,-39.01 C 109.238,22.688 91.222,4.021 58.565,0.688 z m 4,70.621 c -22.991,0 -41.505,-22.991 -41.505,-42.027 0,-10.296 5.466,-22.568 31.508,-22.568 3.157,0 6.572,0.185 10.149,0.55 26.86,2.742 41.353,18.403 41.353,31.748 0.001,18.977 -26.926,32.297 -41.505,32.297 z M 62.413,10.247 C 58.936,9.893 55.624,9.713 52.568,9.713 c -18.917,0 -28.508,6.583 -28.508,19.568 0,17.677 17.176,39.027 38.505,39.027 13.181,0 38.505,-12.372 38.505,-29.298 C 101.071,26.979 87.522,12.811 62.413,10.247 z"
   id="path21" />
</svg>