<?xml version="1.0" encoding="UTF-8" standalone="no"?>
<!-- Generator: Adobe Illustrator 16.0.0, SVG Export Plug-In . SVG Version: 6.00 Build 0)  -->

<svg
   xmlns:dc="http://purl.org/dc/elements/1.1/"
   xmlns:cc="http://creativecommons.org/ns#"
   xmlns:rdf="http://www.w3.org/1999/02/22-rdf-syntax-ns#"
   xmlns:svg="http://www.w3.org/2000/svg"
   xmlns="http://www.w3.org/2000/svg"
   xmlns:sodipodi="http://sodipodi.sourceforge.net/DTD/sodipodi-0.dtd"
   xmlns:inkscape="http://www.inkscape.org/namespaces/inkscape"
   version="1.1"
   id="Isolation_Mode"
   x="0px"
   y="0px"
   width="40.000214"
   height="58.535145"
   viewBox="0 0 40.000214 58.535145"
   enable-background="new 0 0 1200 9990"
   xml:space="preserve"
   inkscape:version="0.48.2 r9819"
   sodipodi:docname="ideal.svg"><metadata
   id="metadata11"><rdf:RDF><cc:Work
       rdf:about=""><dc:format>image/svg+xml</dc:format><dc:type
         rdf:resource="http://purl.org/dc/dcmitype/StillImage" /></cc:Work></rdf:RDF></metadata><defs
   id="defs9" /><sodipodi:namedview
   pagecolor="#ffffff"
   bordercolor="#666666"
   borderopacity="1"
   objecttolerance="10"
   gridtolerance="10"
   guidetolerance="10"
   inkscape:pageopacity="0"
   inkscape:pageshadow="2"
   inkscape:window-width="640"
   inkscape:window-height="480"
   id="namedview7"
   showgrid="false"
   fit-margin-top="0"
   fit-margin-left="0"
   fit-margin-right="0"
   fit-margin-bottom="0"
   inkscape:zoom="0.53454158"
   inkscape:cx="-178.45676"
   inkscape:cy="100.95441"
   inkscape:window-x="0"
   inkscape:window-y="0"
   inkscape:window-maximized="0"
   inkscape:current-layer="Isolation_Mode" />
<path
   d="m 24.664,53.567 c 0.227,-1.146 0.252,-1.552 2.499,-2.241 2.928,-0.897 6.469,0.299 8.143,-1.144 1.198,-1.035 0.677,-2.81 0.475,-4.259 -0.058,-0.417 -0.182,-0.471 0.688,-1.342 0.87,-0.87 0.182,-1.739 0.182,-1.739 1.27,-0.907 0.688,-1.414 0.507,-1.74 -0.182,-0.326 -0.544,-1.45 -0.146,-1.667 1.137,-0.621 0.617,0.362 2.248,-0.653 1.632,-1.016 0.109,-2.718 -0.253,-3.333 -0.364,-0.618 -2.031,-2.683 -2.538,-3.518 -0.508,-0.833 -0.253,-1.233 0.145,-1.705 0.398,-0.47 0.145,-0.834 0,-1.957 -0.145,-1.124 -1.631,-3.407 -1.704,-4.422 -0.072,-1.015 -1.015,-4.75 -1.015,-4.75 1.341,-2.066 0.508,-5.111 0.508,-5.111 -0.036,0.544 -0.435,0.76 -0.435,0.76 0.145,-0.723 0,-1.398 0,-1.398 -0.108,0.378 -0.399,0.241 -0.399,0.241 -0.036,-0.471 -0.762,-0.944 -0.762,-0.944 -0.18,1.742 -1.631,1.662 -1.631,1.662 -9.732,-1.507 -12.394,-3.696 -19.865,-2.641 -4.321,0.61 -5.184,3.372 -5.184,3.372 -2.9,1.378 -4.422,4.386 -5.473,8.374 -1.052,3.988 0.851,9.695 1.849,12.616 1.029,3.012 1.369,3.697 1.935,4.811 0.653,1.287 2.136,3.656 2.124,5.593 -0.013,1.957 0.026,3.172 -0.173,5.663 -0.263,3.306 -0.161,3.811 5.387,5.545 3.053,0.954 6.458,1.605 11.448,-0.52 1.142,-0.487 1.04,-1.546 1.44,-3.553"
   id="path3"
   inkscape:connector-curvature="0"
   />
<path
   d="M 17.5,0 C 7.835,0 0,1.74 0,3.889 0,6.036 7.835,7.777 17.5,7.777 27.165,7.777 35,6.037 35,3.889 35,1.74 27.166,0 17.5,0 m 0,5.832 C 9.983,5.832 3.889,4.963 3.889,3.889 3.889,2.815 9.983,1.944 17.5,1.944 c 7.517,0 13.611,0.871 13.611,1.945 0,1.074 -6.093,1.943 -13.611,1.943"
   id="path5"
   inkscape:connector-curvature="0"
   />
</svg>