<?xml version="1.0" encoding="UTF-8" standalone="no"?>
<!-- Generator: Adobe Illustrator 16.0.0, SVG Export Plug-In . SVG Version: 6.00 Build 0)  -->

<svg
   xmlns:dc="http://purl.org/dc/elements/1.1/"
   xmlns:cc="http://creativecommons.org/ns#"
   xmlns:rdf="http://www.w3.org/1999/02/22-rdf-syntax-ns#"
   xmlns:svg="http://www.w3.org/2000/svg"
   xmlns="http://www.w3.org/2000/svg"
   xmlns:sodipodi="http://sodipodi.sourceforge.net/DTD/sodipodi-0.dtd"
   xmlns:inkscape="http://www.inkscape.org/namespaces/inkscape"
   version="1.1"
   id="Layer_1"
   x="0px"
   y="0px"
   width="174.96794"
   height="187.315"
   viewBox="0 0 174.96794 187.315"
   enable-background="new 0 0 1920 1080"
   xml:space="preserve"
   inkscape:version="0.48.2 r9819"
   sodipodi:docname="md.svg"><metadata
   id="metadata21"><rdf:RDF><cc:Work
       rdf:about=""><dc:format>image/svg+xml</dc:format><dc:type
         rdf:resource="http://purl.org/dc/dcmitype/StillImage" /></cc:Work></rdf:RDF></metadata><defs
   id="defs19" /><sodipodi:namedview
   pagecolor="#ffffff"
   bordercolor="#666666"
   borderopacity="1"
   objecttolerance="10"
   gridtolerance="10"
   guidetolerance="10"
   inkscape:pageopacity="0"
   inkscape:pageshadow="2"
   inkscape:window-width="640"
   inkscape:window-height="480"
   id="namedview17"
   showgrid="false"
   fit-margin-top="0"
   fit-margin-left="0"
   fit-margin-right="0"
   fit-margin-bottom="0"
   inkscape:zoom="0.21851852"
   inkscape:cx="254.416"
   inkscape:cy="414.148"
   inkscape:window-x="0"
   inkscape:window-y="0"
   inkscape:window-maximized="0"
   inkscape:current-layer="Layer_1" />
<path
   d="M 0.014,62.167 C 0.013,62.167 0,62.265 0,62.372 c 0,22.908 32.534,41.42 72.667,41.42 40.133,0 72.667,-18.483 72.667,-41.391 0,-0.108 -0.013,-0.234 -0.014,-0.234 H 0.014 z"
   id="path3"
   inkscape:connector-curvature="0" />
<path
   d="m 107.326,187.167 c 0,0 0.007,0.173 0.007,0.115 0,-12.11 -15.521,-21.787 -34.667,-21.787 -19.146,0 -34.667,9.605 -34.667,21.716 0,0.057 0.006,-0.044 0.007,-0.044 h 69.32 z"
   id="path5"
   inkscape:connector-curvature="0" />
<path
   d="M 120.166,0 C 77.322,0 67.416,35.167 67.416,54.167 h 12 c 0,-24 17.194,-41.498 36.944,-41.498 60.979,0 61.806,76.748 -1.837,96.998 -12.749,4.057 -23.92,6.829 -33.107,9.299 v 9.606 C 92.121,126.06 107.822,122.634 128.41,115.32 193.581,92.17 189.877,0 120.166,0 z"
   id="path7"
   inkscape:connector-curvature="0" />
<g
   id="g9"
   transform="translate(-705.584,-766.833)">
	<path
   d="m 773.019,903.566 c -0.012,0.065 -0.019,0.126 -0.019,0.184 0,2.697 2.733,4.238 11,7.827 V 867 H 773 V 886.659 900 l 0.019,3.566 z"
   id="path11"
   inkscape:connector-curvature="0" />
	<path
   d="m 779.205,924.424 c -2.225,-0.851 -4.282,-1.642 -6.205,-2.415 V 953 h 11 v -26.731 c -1.667,-0.648 -3.268,-1.261 -4.795,-1.845 z"
   id="path13"
   inkscape:connector-curvature="0" />
</g>
<path
   d="m 97.916,157.198 c -21.833,-11.667 -33.5,-12.469 -33.5,-20.281 0,-0.26 0.026,-0.509 0.073,-0.75 h -0.073 v -11.803 c -7.103,3.024 -11,6.641 -11,12.47 0,13 11.914,13.35 37.75,24.583 22.702,9.871 29.583,25.877 29.583,25.877 l 0.167,0.021 c 0,-0.001 -1.167,-18.45 -23,-30.117 z"
   id="path15"
   inkscape:connector-curvature="0" />
</svg>