<?xml version="1.0" encoding="UTF-8" standalone="no"?>
<!-- Generator: Adobe Illustrator 16.0.0, SVG Export Plug-In . SVG Version: 6.00 Build 0)  -->

<svg
   xmlns:dc="http://purl.org/dc/elements/1.1/"
   xmlns:cc="http://creativecommons.org/ns#"
   xmlns:rdf="http://www.w3.org/1999/02/22-rdf-syntax-ns#"
   xmlns:svg="http://www.w3.org/2000/svg"
   xmlns="http://www.w3.org/2000/svg"
   xmlns:sodipodi="http://sodipodi.sourceforge.net/DTD/sodipodi-0.dtd"
   xmlns:inkscape="http://www.inkscape.org/namespaces/inkscape"
   version="1.1"
   id="Layer_1"
   x="0px"
   y="0px"
   width="177"
   height="128.07146"
   viewBox="0 0 177 128.07146"
   enable-background="new 0 0 1920 1080"
   xml:space="preserve"
   inkscape:version="0.48.2 r9819"
   sodipodi:docname="paint.svg"><metadata
   id="metadata9"><rdf:RDF><cc:Work
       rdf:about=""><dc:format>image/svg+xml</dc:format><dc:type
         rdf:resource="http://purl.org/dc/dcmitype/StillImage" /></cc:Work></rdf:RDF></metadata><defs
   id="defs7" /><sodipodi:namedview
   pagecolor="#ffffff"
   bordercolor="#666666"
   borderopacity="1"
   objecttolerance="10"
   gridtolerance="10"
   guidetolerance="10"
   inkscape:pageopacity="0"
   inkscape:pageshadow="2"
   inkscape:window-width="640"
   inkscape:window-height="480"
   id="namedview5"
   showgrid="false"
   fit-margin-top="0"
   fit-margin-left="0"
   fit-margin-right="0"
   fit-margin-bottom="0"
   inkscape:zoom="0.21851852"
   inkscape:cx="502"
   inkscape:cy="345"
   inkscape:window-x="0"
   inkscape:window-y="0"
   inkscape:window-maximized="0"
   inkscape:current-layer="Layer_1" />
<path
   d="M 88.5,1.0714572 C 34.173,9.2504572 0,48.571457 0,67.071457 c 0,13.5 7.95,21.71 17.764,20.648 15.236,-1.648 29.601,-15.247 35.236,-12.772 18.5,8.124 -14.875,24.848 -3,41.350003 5.398,7.502 18.618,11.774 38.5,11.774 48.877,0 88.5,-28.431003 88.5,-63.500003 0,-42.5 -42,-70.4999998 -88.5,-63.4999998 z M 33,67.071457 c -6.627,0 -12,-5.373 -12,-12 0,-6.627 5.373,-12 12,-12 6.627,0 12,5.373 12,12 0,6.627 -5.373,12 -12,12 z m 29,-21 c -6.627,0 -12,-5.373 -12,-12 0,-6.627 5.373,-12 12,-12 6.627,0 12,5.373 12,12 0,6.627 -5.373,12 -12,12 z m 24,64.000003 c -6.627,0 -12,-5.373 -12,-12.000003 0,-6.627 5.373,-12 12,-12 6.627,0 12,5.373 12,12 0,6.627003 -5.373,12.000003 -12,12.000003 z M 98,38.071457 c -6.627,0 -12,-5.373 -12,-12 0,-6.627 5.373,-12 12,-12 6.627,0 12,5.373 12,12 0,6.627 -5.373,12 -12,12 z m 37,8 c -6.627,0 -12,-5.373 -12,-12 0,-6.627 5.373,-12 12,-12 6.627,0 12,5.373 12,12 0,6.627 -5.373,12 -12,12 z"
   id="path3"
   inkscape:connector-curvature="0" />
</svg>