<?xml version="1.0" encoding="UTF-8" standalone="no"?>
<!-- Generator: Adobe Illustrator 16.0.0, SVG Export Plug-In . SVG Version: 6.00 Build 0)  -->

<svg
   xmlns:dc="http://purl.org/dc/elements/1.1/"
   xmlns:cc="http://creativecommons.org/ns#"
   xmlns:rdf="http://www.w3.org/1999/02/22-rdf-syntax-ns#"
   xmlns:svg="http://www.w3.org/2000/svg"
   xmlns="http://www.w3.org/2000/svg"
   xmlns:sodipodi="http://sodipodi.sourceforge.net/DTD/sodipodi-0.dtd"
   xmlns:inkscape="http://www.inkscape.org/namespaces/inkscape"
   version="1.1"
   id="Isolation_Mode"
   x="0px"
   y="0px"
   width="34.139999"
   height="42.598"
   viewBox="0 0 34.139999 42.598"
   enable-background="new 0 0 1200 9990"
   xml:space="preserve"
   inkscape:version="0.48.2 r9819"
   sodipodi:docname="rub.svg"><metadata
   id="metadata11"><rdf:RDF><cc:Work
       rdf:about=""><dc:format>image/svg+xml</dc:format><dc:type
         rdf:resource="http://purl.org/dc/dcmitype/StillImage" /></cc:Work></rdf:RDF></metadata><defs
   id="defs9" /><sodipodi:namedview
   pagecolor="#ffffff"
   bordercolor="#666666"
   borderopacity="1"
   objecttolerance="10"
   gridtolerance="10"
   guidetolerance="10"
   inkscape:pageopacity="0"
   inkscape:pageshadow="2"
   inkscape:window-width="640"
   inkscape:window-height="480"
   id="namedview7"
   showgrid="false"
   fit-margin-top="0"
   fit-margin-left="0"
   fit-margin-right="0"
   fit-margin-bottom="0"
   inkscape:zoom="0.75595595"
   inkscape:cx="15.917976"
   inkscape:cy="12.919017"
   inkscape:window-x="0"
   inkscape:window-y="0"
   inkscape:window-maximized="0"
   inkscape:current-layer="Isolation_Mode" />
<g
   id="g3"
   transform="translate(-389.05,-1648.399)">
	<path
   d="m 389.05,1668.981 h 5.1 v -19.562 c 1.839,-0.32 3.74,-0.57 5.7,-0.75 1.959,-0.18 4.02,-0.27 6.18,-0.27 2.28,0 4.46,0.18 6.54,0.539 2.08,0.36 3.9,1.021 5.46,1.98 1.56,0.96 2.81,2.28 3.75,3.96 0.939,1.681 1.41,3.841 1.41,6.479 0,2.4 -0.471,4.451 -1.41,6.15 -0.94,1.701 -2.18,3.07 -3.72,4.11 -1.541,1.04 -3.3,1.8 -5.28,2.281 -1.98,0.479 -3.99,0.719 -6.03,0.719 h -4.38 v 3.479 h 10.44 v 5.641 h -10.44 v 7.26 h -8.22 v -7.26 h -5.1 v -5.641 h 5.1 v -3.479 h -5.1 v -5.636 z m 13.321,-0.361 h 3.3 c 1.2,0 2.34,-0.12 3.42,-0.36 1.08,-0.24 2.03,-0.639 2.85,-1.199 0.819,-0.561 1.46,-1.27 1.92,-2.131 0.459,-0.859 0.69,-1.93 0.69,-3.209 0,-2.36 -0.74,-4 -2.22,-4.921 -1.48,-0.919 -3.36,-1.38 -5.64,-1.38 -0.84,0 -1.65,0.021 -2.43,0.062 -0.78,0.04 -1.41,0.099 -1.89,0.179 v 12.959 z"
   id="path5"
   inkscape:connector-curvature="0"
   />
</g>
</svg>