<?xml version="1.0" encoding="UTF-8" standalone="no"?>
<!-- Generator: Adobe Illustrator 16.0.0, SVG Export Plug-In . SVG Version: 6.00 Build 0)  -->

<svg
   xmlns:dc="http://purl.org/dc/elements/1.1/"
   xmlns:cc="http://creativecommons.org/ns#"
   xmlns:rdf="http://www.w3.org/1999/02/22-rdf-syntax-ns#"
   xmlns:svg="http://www.w3.org/2000/svg"
   xmlns="http://www.w3.org/2000/svg"
   xmlns:sodipodi="http://sodipodi.sourceforge.net/DTD/sodipodi-0.dtd"
   xmlns:inkscape="http://www.inkscape.org/namespaces/inkscape"
   version="1.1"
   id="Isolation_Mode"
   x="0px"
   y="0px"
   width="150"
   height="65"
   viewBox="0 0 150 65"
   enable-background="new 0 0 1200 9990"
   xml:space="preserve"
   inkscape:version="0.48.2 r9819"
   sodipodi:docname="stage.svg"><metadata
   id="metadata21"><rdf:RDF><cc:Work
       rdf:about=""><dc:format>image/svg+xml</dc:format><dc:type
         rdf:resource="http://purl.org/dc/dcmitype/StillImage" /></cc:Work></rdf:RDF></metadata><defs
   id="defs19" /><sodipodi:namedview
   pagecolor="#ffffff"
   bordercolor="#666666"
   borderopacity="1"
   objecttolerance="10"
   gridtolerance="10"
   guidetolerance="10"
   inkscape:pageopacity="0"
   inkscape:pageshadow="2"
   inkscape:window-width="640"
   inkscape:window-height="480"
   id="namedview17"
   showgrid="false"
   fit-margin-top="0"
   fit-margin-left="0"
   fit-margin-right="0"
   fit-margin-bottom="0"
   inkscape:zoom="0.023623624"
   inkscape:cx="-173"
   inkscape:cy="-1438"
   inkscape:window-x="0"
   inkscape:window-y="0"
   inkscape:window-maximized="0"
   inkscape:current-layer="Isolation_Mode" />
<path
   d="M 15,0 C 6.716,0 0,6.716 0,15 0,23.284 6.716,30 15,30 23.284,30 30,23.284 30,15 30,6.716 23.284,0 15,0 m -0.838,22.284 -6.223,-6.223 2.121,-2.121 3.777,3.777 6.462,-8.617 2.4,1.8 -8.537,11.384 z"
   id="path3"
   inkscape:connector-curvature="0"
   style="fill:#c485db" />
<path
   d="M 55,0 C 46.716,0 40,6.716 40,15 40,23.284 46.716,30 55,30 63.284,30 70,23.284 70,15 70,6.716 63.284,0 55,0 m -0.838,22.284 -6.223,-6.223 2.121,-2.121 3.777,3.777 6.462,-8.617 2.4,1.8 -8.537,11.384 z"
   id="path5"
   inkscape:connector-curvature="0"
   style="fill:#c485db" />
<path
   d="m 95,0 c -8.284,0 -15,6.716 -15,15 0,8.284 6.716,15 15,15 8.284,0 15,-6.716 15,-15 C 110,6.716 103.284,0 95,0 m -0.838,22.284 -6.223,-6.223 2.121,-2.121 3.777,3.777 6.462,-8.617 2.4,1.8 -8.537,11.384 z"
   id="path7"
   inkscape:connector-curvature="0"
   style="fill:#c485db" />
<path
   d="m 35,35 c -8.284,0 -15,6.716 -15,15 0,8.284 6.716,15 15,15 8.284,0 15,-6.716 15,-15 0,-8.284 -6.716,-15 -15,-15 m -0.838,22.284 -6.223,-6.223 2.121,-2.121 3.777,3.777 6.462,-8.617 2.4,1.8 -8.537,11.384 z"
   id="path9"
   inkscape:connector-curvature="0"
   style="fill:#c485db" />
<path
   d="m 75,35 c -8.284,0 -15,6.716 -15,15 0,8.284 6.716,15 15,15 8.284,0 15,-6.716 15,-15 0,-8.284 -6.716,-15 -15,-15 m -0.838,22.284 -6.223,-6.223 2.121,-2.121 3.777,3.777 6.462,-8.617 2.4,1.8 -8.537,11.384 z"
   id="path11"
   inkscape:connector-curvature="0"
   style="fill:#c485db" />
<path
   d="m 135,0 c -8.284,0 -15,6.716 -15,15 0,8.284 6.716,15 15,15 8.284,0 15,-6.716 15,-15 0,-8.284 -6.716,-15 -15,-15 m -0.838,22.284 -6.223,-6.223 2.121,-2.121 3.777,3.777 6.462,-8.617 2.4,1.8 -8.537,11.384 z"
   id="path13"
   inkscape:connector-curvature="0"
   style="fill:#c485db" />
<path
   d="m 115,35 c -8.284,0 -15,6.716 -15,15 0,8.284 6.716,15 15,15 8.284,0 15,-6.716 15,-15 0,-8.284 -6.716,-15 -15,-15 m -0.838,22.284 -6.223,-6.223 2.121,-2.121 3.777,3.777 6.462,-8.617 2.4,1.8 -8.537,11.384 z"
   id="path15"
   inkscape:connector-curvature="0"
   style="fill:#c485db" />
</svg>