<?xml version="1.0" encoding="UTF-8" standalone="no"?>
<!-- Generator: Adobe Illustrator 16.0.0, SVG Export Plug-In . SVG Version: 6.00 Build 0)  -->

<svg
   xmlns:dc="http://purl.org/dc/elements/1.1/"
   xmlns:cc="http://creativecommons.org/ns#"
   xmlns:rdf="http://www.w3.org/1999/02/22-rdf-syntax-ns#"
   xmlns:svg="http://www.w3.org/2000/svg"
   xmlns="http://www.w3.org/2000/svg"
   xmlns:sodipodi="http://sodipodi.sourceforge.net/DTD/sodipodi-0.dtd"
   xmlns:inkscape="http://www.inkscape.org/namespaces/inkscape"
   version="1.1"
   id="Layer_1"
   x="0px"
   y="0px"
   width="317.64099"
   height="349.672"
   viewBox="0 0 317.64099 349.672"
   enable-background="new 0 0 1920 1080"
   xml:space="preserve"
   inkscape:version="0.48.2 r9819"
   sodipodi:docname="target.svg"><metadata
   id="metadata17"><rdf:RDF><cc:Work
       rdf:about=""><dc:format>image/svg+xml</dc:format><dc:type
         rdf:resource="http://purl.org/dc/dcmitype/StillImage" /></cc:Work></rdf:RDF></metadata><defs
   id="defs15" /><sodipodi:namedview
   pagecolor="#ffffff"
   bordercolor="#666666"
   borderopacity="1"
   objecttolerance="10"
   gridtolerance="10"
   guidetolerance="10"
   inkscape:pageopacity="0"
   inkscape:pageshadow="2"
   inkscape:window-width="640"
   inkscape:window-height="480"
   id="namedview13"
   showgrid="false"
   fit-margin-top="0"
   fit-margin-left="0"
   fit-margin-right="0"
   fit-margin-bottom="0"
   inkscape:zoom="0.21851852"
   inkscape:cx="276.932"
   inkscape:cy="-22.328"
   inkscape:window-x="0"
   inkscape:window-y="0"
   inkscape:window-maximized="0"
   inkscape:current-layer="Layer_1" />
<path
   d="M 209.628,304 H 27 c -5.523,0 -10,-4.477 -10,-10 V 87 c 0,-5.523 4.477,-10 10,-10 h 217 c 5.523,0 10,4.477 10,10 v 161.035 c 2.42,-1.227 5.13,-1.938 7.987,-1.938 0.842,0 1.664,0.081 2.478,0.196 2.096,-0.859 4.318,-1.365 6.535,-1.499 V 53 c 0,-8.25 -6.754,-15 -15.004,-15 H 174.469 C 173.938,16.925 156.7,0 135.496,0 114.294,0 97.055,16.925 96.523,38 H 14.996 C 6.746,38 0,44.75 0,53 v 253 c 0,8.25 6.746,15 14.996,15 h 193.141 c -2.131,-5.43 -1.514,-11.93 1.491,-17 z M 135.496,23.999 c 8.285,0 15,6.715 15,14.999 0,8.284 -6.715,14.999 -15,14.999 -8.283,0 -14.998,-6.715 -14.998,-14.999 0,-8.284 6.715,-14.999 14.998,-14.999 z"
   id="path3"
   inkscape:connector-curvature="0"
   style="fill:#dd2476" />
<path
   d="m 256.894,349.672 c -33.538,0 -60.747,-27.209 -60.747,-60.748 0,-33.538 27.209,-60.747 60.747,-60.747 33.537,0 60.747,27.209 60.747,60.747 0,33.539 -27.21,60.748 -60.747,60.748 z m 39.391,-77.199 -7.198,-7.119 c -0.949,-0.95 -2.214,-1.503 -3.56,-1.503 -1.345,0 -2.609,0.553 -3.56,1.503 L 249.696,297.546 231.82,279.67 c -0.949,-0.949 -2.214,-1.503 -3.56,-1.503 -1.345,0 -2.609,0.554 -3.56,1.503 l -7.198,7.119 c -0.948,0.949 -1.423,2.293 -1.423,3.639 0,1.344 0.475,2.61 1.423,3.559 l 28.634,28.633 c 0.949,0.95 2.294,1.503 3.56,1.503 1.344,0 2.689,-0.553 3.639,-1.503 l 42.95,-42.95 c 0.948,-0.949 1.423,-2.214 1.423,-3.559 -0.001,-1.345 -0.475,-2.689 -1.423,-3.638 z"
   id="path5"
   inkscape:connector-curvature="0"
   style="fill:#dd2476" />
<rect
   x="66.999992"
   y="122"
   width="156"
   height="21"
   id="rect7"
   style="fill:#dd2476" />
<rect
   x="66.999992"
   y="161"
   width="156"
   height="21"
   id="rect9"
   style="fill:#dd2476" />
<rect
   x="66.999992"
   y="201"
   width="156"
   height="21"
   id="rect11"
   style="fill:#dd2476" />
</svg>