<?xml version="1.0" encoding="UTF-8" standalone="no"?>
<!-- Created with Inkscape (http://www.inkscape.org/) -->

<svg
   xmlns:dc="http://purl.org/dc/elements/1.1/"
   xmlns:cc="http://creativecommons.org/ns#"
   xmlns:rdf="http://www.w3.org/1999/02/22-rdf-syntax-ns#"
   xmlns:svg="http://www.w3.org/2000/svg"
   xmlns="http://www.w3.org/2000/svg"
   version="1.1"
   width="35"
   height="35"
   viewBox="0 0 35 37"
   id="Layer_1"
   xml:space="preserve"><metadata
   id="metadata9"><rdf:RDF><cc:Work
       rdf:about=""><dc:format>image/svg+xml</dc:format><dc:type
         rdf:resource="http://purl.org/dc/dcmitype/StillImage" /><dc:title></dc:title></cc:Work></rdf:RDF></metadata><defs
   id="defs7" />
<path
   d="M 17.5,0 C 7.835,0 0,7.835 0,17.5 0,27.165 7.835,35 17.5,35 27.165,35 35,27.165 35,17.5 35,7.835 27.165,0 17.5,0 z m 7.593,13.605 c 0.007,0.168 0.012,0.337 0.012,0.507 0,5.178 -3.941,11.147 -11.147,11.147 -2.212,0 -4.272,-0.648 -6.006,-1.76 0.306,0.036 0.619,0.055 0.935,0.055 1.835,0 3.525,-0.626 4.866,-1.677 -1.714,-0.031 -3.161,-1.164 -3.66,-2.721 0.239,0.046 0.485,0.07 0.737,0.07 0.357,0 0.703,-0.048 1.032,-0.138 -1.792,-0.36 -3.143,-1.943 -3.143,-3.842 0,-0.016 0,-0.033 0,-0.049 0.529,0.293 1.132,0.47 1.775,0.49 -1.051,-0.703 -1.743,-1.902 -1.743,-3.261 0,-0.718 0.193,-1.391 0.53,-1.969 1.932,2.37 4.819,3.93 8.075,4.093 -0.067,-0.287 -0.102,-0.585 -0.102,-0.893 0,-2.164 1.754,-3.918 3.918,-3.918 1.127,0 2.146,0.476 2.86,1.237 0.893,-0.176 1.731,-0.502 2.488,-0.951 -0.292,0.915 -0.914,1.683 -1.722,2.167 0.792,-0.095 1.547,-0.305 2.25,-0.617 -0.525,0.788 -1.19,1.478 -1.955,2.03 z"
   id="path3"
   />
</svg>