<?xml version="1.0" encoding="UTF-8" standalone="no"?>
<!-- Generator: Adobe Illustrator 16.0.0, SVG Export Plug-In . SVG Version: 6.00 Build 0)  -->

<svg
   xmlns:dc="http://purl.org/dc/elements/1.1/"
   xmlns:cc="http://creativecommons.org/ns#"
   xmlns:rdf="http://www.w3.org/1999/02/22-rdf-syntax-ns#"
   xmlns:svg="http://www.w3.org/2000/svg"
   xmlns="http://www.w3.org/2000/svg"
   xmlns:sodipodi="http://sodipodi.sourceforge.net/DTD/sodipodi-0.dtd"
   xmlns:inkscape="http://www.inkscape.org/namespaces/inkscape"
   version="1.1"
   id="Layer_1"
   x="0px"
   y="0px"
   width="366"
   height="264"
   viewBox="0 0 366 264"
   enable-background="new 0 0 1920 1080"
   xml:space="preserve"
   inkscape:version="0.48.2 r9819"
   sodipodi:docname="video.svg"><metadata
   id="metadata9"><rdf:RDF><cc:Work
       rdf:about=""><dc:format>image/svg+xml</dc:format><dc:type
         rdf:resource="http://purl.org/dc/dcmitype/StillImage" /></cc:Work></rdf:RDF></metadata><defs
   id="defs7" /><sodipodi:namedview
   pagecolor="#ffffff"
   bordercolor="#666666"
   borderopacity="1"
   objecttolerance="10"
   gridtolerance="10"
   guidetolerance="10"
   inkscape:pageopacity="0"
   inkscape:pageshadow="2"
   inkscape:window-width="640"
   inkscape:window-height="480"
   id="namedview5"
   showgrid="false"
   fit-margin-top="0"
   fit-margin-left="0"
   fit-margin-right="0"
   fit-margin-bottom="0"
   inkscape:zoom="0.21851852"
   inkscape:cx="182.932"
   inkscape:cy="-9"
   inkscape:window-x="0"
   inkscape:window-y="0"
   inkscape:window-maximized="0"
   inkscape:current-layer="Layer_1" />
<path
   d="M 351,0 H 15 C 6.716,0 0,6.716 0,15 v 234 c 0,8.284 6.716,15 15,15 h 336 c 8.284,0 15,-6.716 15,-15 V 15 C 366,6.716 359.285,0 351,0 z M 54,229 c 0,5.5 -4.5,10 -10,10 H 27 c -5.5,0 -10,-4.5 -10,-10 v -17 c 0,-5.5 4.5,-10 10,-10 h 17 c 5.5,0 10,4.5 10,10 v 17 z m 0,-60 c 0,5.5 -4.5,10 -10,10 H 27 c -5.5,0 -10,-4.5 -10,-10 v -17 c 0,-5.5 4.5,-10 10,-10 h 17 c 5.5,0 10,4.5 10,10 v 17 z m 0,-60 c 0,5.5 -4.5,10 -10,10 H 27 c -5.5,0 -10,-4.5 -10,-10 V 92 c 0,-5.5 4.5,-10 10,-10 h 17 c 5.5,0 10,4.5 10,10 v 17 z m 0,-60 c 0,5.5 -4.5,10 -10,10 H 27 C 21.5,59 17,54.5 17,49 V 32 c 0,-5.5 4.5,-10 10,-10 h 17 c 5.5,0 10,4.5 10,10 v 17 z m 240,186 c 0,5.5 -4.5,10 -10,10 H 82 c -5.5,0 -10,-4.5 -10,-10 V 30 c 0,-5.5 4.5,-10 10,-10 h 202 c 5.5,0 10,4.5 10,10 v 205 z m 54,-6 c 0,5.5 -4.5,10 -10,10 h -17 c -5.5,0 -10,-4.5 -10,-10 v -17 c 0,-5.5 4.5,-10 10,-10 h 17 c 5.5,0 10,4.5 10,10 v 17 z m 0,-60 c 0,5.5 -4.5,10 -10,10 h -17 c -5.5,0 -10,-4.5 -10,-10 v -17 c 0,-5.5 4.5,-10 10,-10 h 17 c 5.5,0 10,4.5 10,10 v 17 z m 0,-60 c 0,5.5 -4.5,10 -10,10 h -17 c -5.5,0 -10,-4.5 -10,-10 V 92 c 0,-5.5 4.5,-10 10,-10 h 17 c 5.5,0 10,4.5 10,10 v 17 z m 0,-60 c 0,5.5 -4.5,10 -10,10 h -17 c -5.5,0 -10,-4.5 -10,-10 V 32 c 0,-5.5 4.5,-10 10,-10 h 17 c 5.5,0 10,4.5 10,10 v 17 z"
   id="path3"
   inkscape:connector-curvature="0"
   style="fill:#28a5ed" />
</svg>