<?xml version="1.0" encoding="UTF-8" standalone="no"?>
<!-- Created with Inkscape (http://www.inkscape.org/) -->

<svg
   xmlns:dc="http://purl.org/dc/elements/1.1/"
   xmlns:cc="http://creativecommons.org/ns#"
   xmlns:rdf="http://www.w3.org/1999/02/22-rdf-syntax-ns#"
   xmlns:svg="http://www.w3.org/2000/svg"
   xmlns="http://www.w3.org/2000/svg"
   version="1.1"
   width="35"
   height="35"
   viewBox="0 0 35 35"
   id="Layer_1"
   xml:space="preserve"><metadata
   id="metadata9"><rdf:RDF><cc:Work
       rdf:about=""><dc:format>image/svg+xml</dc:format><dc:type
         rdf:resource="http://purl.org/dc/dcmitype/StillImage" /><dc:title></dc:title></cc:Work></rdf:RDF></metadata><defs
   id="defs7" />
<path
   d="M 17.5,0 C 7.835,0 0,7.835 0,17.5 0,27.165 7.835,35 17.5,35 27.165,35 35,27.165 35,17.5 35,7.835 27.165,0 17.5,0 z m 8.162,21.013 c 1.798,1.668 2.17,2.48 2.231,2.581 0.744,1.234 -0.825,1.331 -0.825,1.331 l -3.001,0.042 c 0,0 -0.645,0.128 -1.493,-0.455 -1.123,-0.771 -2.181,-2.773 -3.006,-2.513 -0.836,0.266 -0.81,2.068 -0.81,2.068 0,0 0.006,0.385 -0.185,0.59 -0.208,0.224 -0.613,0.268 -0.613,0.268 h -1.343 c 0,0 -2.963,0.179 -5.574,-2.539 -2.846,-2.964 -5.36,-8.845 -5.36,-8.845 0,0 -0.145,-0.386 0.013,-0.572 0.177,-0.209 0.659,-0.223 0.659,-0.223 l 3.211,-0.021 c 0,0 0.302,0.051 0.519,0.21 0.179,0.131 0.279,0.377 0.279,0.377 0,0 0.519,1.312 1.206,2.499 1.341,2.318 1.966,2.825 2.421,2.576 0.664,-0.361 0.465,-3.276 0.465,-3.276 0,0 0.012,-1.058 -0.334,-1.528 -0.269,-0.365 -0.774,-0.472 -0.998,-0.502 -0.181,-0.023 0.116,-0.443 0.5,-0.632 0.578,-0.282 1.598,-0.299 2.804,-0.286 0.939,0.009 1.21,0.068 1.577,0.157 1.106,0.267 0.731,1.299 0.731,3.775 0,0.792 -0.143,1.907 0.43,2.277 0.246,0.159 0.847,0.023 2.352,-2.531 0.713,-1.211 1.248,-2.635 1.248,-2.635 0,0 0.116,-0.254 0.298,-0.362 0.186,-0.11 0.437,-0.077 0.437,-0.077 l 3.379,-0.021 c 0,0 1.015,-0.121 1.179,0.337 0.173,0.481 -0.379,1.604 -1.76,3.444 -2.267,3.022 -2.519,2.739 -0.637,4.486 z"
   id="path3"
   />
</svg>